<svg width="25" height="25" viewBox="0 0 25 25" fill="none" xmlns="http://www.w3.org/2000/svg">
<path fill-rule="evenodd" clip-rule="evenodd" d="M2.32105 12.178L22.6305 12.2189L20.9315 22.2243C18.0977 22.2243 15.264 22.2243 12.4303 22.2243C10.973 22.2243 4.95899 22.4121 4.01009 22.1664L2.32105 12.178ZM11.6532 2.25649C14.0285 1.9908 15.6356 2.70997 17.1309 4.29313C18.5972 5.84633 18.2785 7.59929 19.2035 8.01182C19.6989 8.23256 20.1913 8.1097 20.488 7.75012C21.4209 6.61843 19.3962 2.54116 16.3628 0.932029C15.5058 0.477556 14.5009 0.192886 13.3752 0.0640358C8.54383 -0.490321 5.41146 2.63605 4.35569 6.28882C3.78335 8.26752 5.37251 8.24155 5.83697 7.97886C6.79486 7.43648 6.63904 2.81584 11.6542 2.25549L11.6532 2.25649ZM24.9638 11.4748C25.3014 9.54704 23.1998 10.0015 21.6276 10.0015H1.89155C1.0645 10.0005 0.33535 9.89064 0.0287061 10.6438C-0.23299 11.284 1.43907 20.0349 1.62485 21.1386C1.99942 23.359 1.8436 24.3778 3.33487 24.3918L18.1147 24.3888C23.6533 24.3888 22.6265 25.12 23.5344 19.897C24.0269 17.0643 24.4714 14.2915 24.9648 11.4748H24.9638Z" fill="#747474"/>
</svg>
