<svg width="25" height="25" viewBox="0 0 25 25" fill="none" xmlns="http://www.w3.org/2000/svg">
<path fill-rule="evenodd" clip-rule="evenodd" d="M17.1223 22.1555C17.1718 21.9698 18.1411 20.5952 18.3493 19.7015C18.6646 19.7277 19.544 20.1236 19.7996 20.259C19.3947 20.8631 17.7423 21.8275 17.1223 22.1555ZM5.18691 20.259C5.42699 20.1322 6.34683 19.7257 6.63722 19.7015C6.82822 20.5216 7.82209 21.9972 7.86421 22.1555C7.22699 21.8181 6.33497 21.3101 5.78814 20.8291C5.56769 20.6353 5.34519 20.495 5.18691 20.259ZM21.0826 18.8647C20.6127 18.6161 19.4724 18.0909 18.9632 17.9727C18.9767 17.8099 19.3211 16.4197 19.4061 15.7944C19.5067 15.0582 19.6323 14.2173 19.6323 13.3989H23.1456C23.1456 14.8361 22.283 17.0872 21.4732 18.3077C21.3464 18.4987 21.2045 18.6823 21.0822 18.8643L21.0826 18.8647ZM5.3546 11.8377C5.3546 13.3862 5.32843 13.8999 5.53824 15.5023C5.66789 16.4925 5.75706 16.969 6.69284 16.969C6.95542 16.969 7.25072 16.7052 7.34683 16.5077C7.59796 15.9915 7.19468 14.7727 7.19468 13.3997H17.7918C17.7918 16.0803 16.6082 21.1927 13.9816 22.7522C12.3791 23.7036 10.8401 22.9874 9.90388 21.7895C9.44663 21.2042 9.46626 21.2786 9.04499 20.5846C8.74192 20.0852 8.59182 19.6283 8.36564 19.2005C9.06789 19.142 10.1571 18.7968 11.3215 18.8099C11.7521 18.8148 11.9795 18.7543 12.4372 18.7543C12.9967 18.7543 13.6814 18.805 14.1824 18.8516C15.2863 18.9543 15.5595 17.324 14.5256 17.0565C14.0785 16.9408 12.3243 16.9694 11.7681 16.9694C9.88671 16.9694 7.2225 17.4704 5.56074 18.124L3.84867 18.8655L3.16033 17.7138C2.65317 16.7854 2.37464 16.0839 2.10838 15.0287C2.009 14.6365 1.8409 13.8872 1.8409 13.4001H3.68139C4.08589 13.4001 4.46217 13.0132 4.46217 12.396C4.46217 12.048 4.02945 11.6152 3.68139 11.6152H1.8409C1.8409 10.4447 2.37955 8.97352 2.82863 7.91789C2.93742 7.66309 3.03476 7.5318 3.16033 7.30153C3.4818 6.71258 3.57137 6.64673 3.90429 6.14979C4.37423 6.39847 5.51452 6.92362 6.02372 7.04182L5.56769 9.31871C5.46012 10.1003 5.3546 10.9253 5.3546 11.8385V11.8377ZM12.4933 6.26022C11.6658 6.26022 10.3092 6.09294 9.64867 6.09294C8.96564 6.09294 8.26258 7.76902 10.0442 7.92853C12.5166 8.14979 14.8266 8.10399 17.2344 7.54284L17.5354 9.02628C17.5947 9.30276 17.6569 9.46472 17.8311 9.623C18.4834 10.214 19.3538 9.67413 19.3538 8.99274C19.3538 8.69335 19.2413 8.27822 19.1824 7.99274C19.1235 7.70603 18.9869 7.32566 18.9632 7.04059C19.3616 6.94775 20.1955 6.58538 20.6 6.39069C20.7996 6.29499 20.9202 6.19928 21.1382 6.14857L21.8266 7.30031C22.0777 7.76002 22.2315 8.07045 22.4368 8.58619C22.7252 9.30889 23.146 10.7915 23.146 11.614H7.19468C7.19468 10.3956 7.38896 9.22014 7.62945 8.2001C7.86871 7.18538 8.15174 6.24836 8.55174 5.38579C8.89407 4.64714 9.43845 3.69662 9.99673 3.09417C11.1963 1.79887 12.4315 1.42219 13.9804 2.26268C14.3427 2.45941 14.8446 2.8999 15.0912 3.21564C16.0528 4.44632 16.0507 4.62628 16.6204 5.8136C15.9125 5.87249 14.8638 6.21728 13.6082 6.20378C13.1779 6.19887 12.9505 6.25981 12.4928 6.25981L12.4933 6.26022ZM6.63722 5.31217C6.32188 5.28599 5.44254 4.89008 5.18691 4.7547C5.33947 4.52689 5.54887 4.39969 5.7591 4.21114C6.31452 3.7138 7.21063 3.20378 7.86421 2.85818L7.19468 4.02955C7.00859 4.40378 6.73988 4.87208 6.63722 5.31217ZM17.0667 2.85818C17.3755 2.93016 18.2356 3.48681 18.5284 3.68313C18.8479 3.89703 19.6053 4.46472 19.7996 4.7547C19.5595 4.88149 18.6397 5.28804 18.3493 5.31217C18.1898 4.6271 17.4589 3.44386 17.0667 2.85818ZM0 12.005C0 14.2749 0.238037 15.9547 1.18977 17.8426C1.97955 19.4091 2.51902 20.185 3.69489 21.3608C5.86544 23.5318 8.94683 25.0001 12.1027 25.0001C14.7922 25.0001 16.6474 24.5363 18.7427 23.3298C19.5133 22.886 19.8086 22.6525 20.5174 22.0925L22.0311 20.5944C22.9284 19.432 23.0871 19.2508 23.7967 17.8426C25.7534 13.9608 25.2556 8.70194 22.6843 5.27208C21.5395 3.7453 20.416 2.64754 18.7427 1.68395C14.636 -0.680472 9.76442 -0.529552 5.75583 1.97638C5.66544 2.03282 5.59877 2.06554 5.5137 2.12485C5.42986 2.18333 5.38405 2.22341 5.28753 2.28926C5.12556 2.39969 5.02699 2.47699 4.8683 2.59478C4.46626 2.89417 3.82209 3.45327 3.49734 3.8455L2.63436 4.8226C2.50061 4.98415 2.42986 5.10235 2.30266 5.27168C1.06339 6.92485 0.000408998 9.7044 0.000408998 12.0046L0 12.005Z" fill="#747474"/>
</svg>
